<svg width="30" height="25" viewBox="0 0 24 25" fill="none" xmlns="http://www.w3.org/2000/svg">
<path d="M3.5 5H5.05848C5.7542 5 6.10206 5 6.36395 5.18876C6.62584 5.37752 6.73584 5.70753 6.95585 6.36754L7.5 8" stroke="white" stroke-linecap="round"/>
<path d="M17.5 18H8.05091C7.90471 18 7.83162 18 7.77616 17.9938C7.18857 17.928 6.78605 17.3695 6.90945 16.7913C6.92109 16.7367 6.94421 16.6674 6.99044 16.5287V16.5287C7.04177 16.3747 7.06743 16.2977 7.09579 16.2298C7.38607 15.5342 8.04277 15.0608 8.79448 15.0054C8.8679 15 8.94906 15 9.11137 15H14.5" stroke="white" stroke-linecap="round" stroke-linejoin="round"/>
<path d="M14.1787 15H11.1376C9.85836 15 9.21875 15 8.71781 14.6697C8.21687 14.3394 7.96492 13.7515 7.461 12.5757L7.29218 12.1818C6.48269 10.2929 6.07794 9.34853 6.52255 8.67426C6.96715 8 7.99464 8 10.0496 8H15.3305C17.6295 8 18.779 8 19.2126 8.74711C19.6462 9.49422 19.0758 10.4923 17.9352 12.4884L17.6517 12.9846C17.0897 13.9679 16.8088 14.4596 16.3432 14.7298C15.8776 15 15.3113 15 14.1787 15Z" stroke="white" stroke-linecap="round"/>
<circle cx="17" cy="20.5" r="1" fill="white"/>
<circle cx="9" cy="20.5" r="1" fill="white"/>
</svg>
